<svg width="30" height="29" viewBox="0 0 30 29" fill="none" xmlns="http://www.w3.org/2000/svg">
    <path d="M14.8305 19.1187C13.0962 19.1187 11.433 18.4297 10.2067 17.2034C8.98037 15.9771 8.29144 14.3139 8.29144 12.5796V4.65211C8.27336 4.40718 8.27336 4.16125 8.29144 3.91632C8.30024 3.83973 8.32418 3.76565 8.36187 3.69839C8.39956 3.63113 8.45025 3.57204 8.51099 3.52455C8.57173 3.47707 8.6413 3.44213 8.71567 3.42178C8.79003 3.40143 8.8677 3.39608 8.94416 3.40602C9.0997 3.42392 9.24187 3.50257 9.33968 3.62483C9.43749 3.74709 9.48301 3.90305 9.46633 4.05873C9.45417 4.25634 9.45417 4.45451 9.46633 4.65211V12.5796C9.5567 13.9345 10.1586 15.2043 11.1502 16.1319C12.1418 17.0596 13.4489 17.5757 14.8067 17.5757C16.1646 17.5757 17.4717 17.0596 18.4632 16.1319C19.4548 15.2043 20.0568 13.9345 20.1471 12.5796V4.65211C20.1593 4.45451 20.1593 4.25634 20.1471 4.05873C20.1282 3.90136 20.1726 3.74293 20.2706 3.6183C20.3685 3.49366 20.5119 3.41304 20.6693 3.39415C20.8267 3.37527 20.9851 3.41967 21.1097 3.5176C21.2344 3.61552 21.315 3.75895 21.3339 3.91632C21.352 4.16125 21.352 4.40718 21.3339 4.65211V12.5796C21.3339 14.3077 20.6499 15.9656 19.4312 17.1909C18.2126 18.4162 16.5585 19.1092 14.8305 19.1187Z" fill="white"/>
    <path d="M21.417 11.8556C21.3073 11.8531 21.2005 11.8202 21.1084 11.7607L20.4676 11.3809C20.3322 11.2991 20.2349 11.1668 20.1971 11.0133C20.1593 10.8597 20.184 10.6974 20.2658 10.562C20.3476 10.4267 20.4799 10.3294 20.6334 10.2916C20.787 10.2537 20.9493 10.2785 21.0847 10.3603L21.5712 10.657C25.2383 10.5383 25.9385 6.19478 26.069 4.5808H3.58003C3.71057 6.20665 4.37515 10.5146 8.0897 10.657L8.57627 10.3603C8.64328 10.3198 8.71762 10.2929 8.79504 10.2811C8.87246 10.2693 8.95144 10.2728 9.02748 10.2916C9.10352 10.3103 9.17512 10.3438 9.2382 10.3902C9.30128 10.4367 9.35461 10.495 9.39513 10.562C9.43565 10.6291 9.46257 10.7034 9.47436 10.7808C9.48615 10.8582 9.48258 10.9372 9.46384 11.0133C9.44511 11.0893 9.41158 11.1609 9.36518 11.224C9.31877 11.2871 9.26039 11.3404 9.19338 11.3809L8.55253 11.7607C8.46043 11.8202 8.35362 11.8531 8.24397 11.8556C3.60376 11.8556 2.36954 6.70509 2.36954 3.98742C2.36954 3.83005 2.43205 3.67912 2.54333 3.56784C2.65461 3.45656 2.80554 3.39404 2.96291 3.39404H26.698C26.8554 3.39404 27.0063 3.45656 27.1176 3.56784C27.2289 3.67912 27.2914 3.83005 27.2914 3.98742C27.2914 6.70509 26.0572 11.8556 21.417 11.8556Z" fill="white"/>
    <path d="M14.8305 25.7289C14.6731 25.7289 14.5222 25.6664 14.4109 25.5551C14.2996 25.4438 14.2371 25.2929 14.2371 25.1355V18.5253C14.2371 18.3679 14.2996 18.217 14.4109 18.1057C14.5222 17.9944 14.6731 17.9319 14.8305 17.9319C14.9878 17.9319 15.1388 17.9944 15.2501 18.1057C15.3613 18.217 15.4238 18.3679 15.4238 18.5253V25.1355C15.4238 25.2929 15.3613 25.4438 15.2501 25.5551C15.1388 25.6664 14.9878 25.7289 14.8305 25.7289Z" fill="white"/>
    <path d="M21.4407 25.729H9.57314C9.41577 25.729 9.26484 25.6665 9.15356 25.5552C9.04228 25.4439 8.97977 25.293 8.97977 25.1356C8.97977 24.9782 9.04228 24.8273 9.15356 24.716C9.26484 24.6048 9.41577 24.5422 9.57314 24.5422H21.4407C21.5981 24.5422 21.749 24.6048 21.8603 24.716C21.9716 24.8273 22.0341 24.9782 22.0341 25.1356C22.0341 25.293 21.9716 25.4439 21.8603 25.5552C21.749 25.6665 21.5981 25.729 21.4407 25.729Z" fill="white"/>
</svg>
